<?xml version="1.0" encoding="UTF-8"?>
<svg id="Layer_1" xmlns="http://www.w3.org/2000/svg" version="1.1" viewBox="0 0 191 169.4">
  <!-- Generator: Adobe Illustrator 29.6.1, SVG Export Plug-In . SVG Version: 2.1.1 Build 9)  -->
  <defs>
    <style>
      .st0 {
        fill: #fff;
      }

      .st1 {
        fill: #fd4ee6;
      }
    </style>
  </defs>
  <path class="st1" d="M95.3,33.3c.6.6.7-.1.9-.5.4-.8.6-2,1.1-2.9,22.7-45.9,88.8-32.2,93.4,17.8,5,54.7-43.5,73.8-79,103.4-6.7,5.6-13.4,11.6-18.9,18.4-6.9-11-16.8-19.4-26.7-27.6C33.7,115.5-2.9,95.9.2,48,2.2,16.8,30.1-4.8,61.5.9c13.7,2.5,28.4,15.1,32.8,28.1.3.7.8,4.1,1,4.3h0Z"/>
  <path class="st0" d="M74.5,105.2v-48.7c0-4.9,5.4-7.8,9.5-5.2l39.6,25.8c3.8,2.5,3.7,8.2-.3,10.5l-39.6,22.9c-4.1,2.4-9.2-.6-9.2-5.3Z"/>
</svg>