<svg width="46" height="48" viewBox="0 0 46 48" fill="none" xmlns="http://www.w3.org/2000/svg">
<path d="M9.88219 47.7255C9.88219 47.1887 9.77895 46.9203 9.57247 46.9203L8.14776 47.6017C8.14776 47.3126 7.98258 47.1061 7.65221 46.9822L7.15665 46.9203C6.82629 46.9203 6.41333 47.0648 5.91777 47.3539C5.83518 47.1474 5.73194 46.9409 5.60805 46.7344C5.48416 46.528 5.38092 46.3421 5.29833 46.1769C4.76148 45.1445 4.22463 44.0089 3.68779 42.77C3.19223 41.4898 2.71733 40.2716 2.26307 39.1153C1.85011 37.959 1.51974 37.0505 1.27197 36.3898C1.10678 35.8529 0.920949 35.0476 0.714469 33.974C0.507988 32.9003 0.301508 31.5375 0.0950276 29.8856C0.549284 30.1747 0.900301 30.3192 1.14808 30.3192C1.43715 30.3192 1.70557 29.8856 1.95335 29.0184C2.07724 29.1836 2.30437 29.2662 2.63474 29.2662C2.88251 29.2662 3.06834 29.1836 3.19223 29.0184L4.18334 27.5318L5.29833 27.9034H5.36028C5.44287 27.9034 5.52546 27.8621 5.60805 27.7795C5.69064 27.6969 5.81453 27.6144 5.97972 27.5318C6.31009 27.3253 6.55786 27.222 6.72305 27.222L6.90888 27.284C7.94128 27.7795 8.60202 28.6881 8.89109 30.0095C9.63442 33.148 10.3777 34.7173 11.1211 34.7173C11.8644 34.7173 12.7316 33.9327 13.7227 32.3634C14.2183 31.5788 14.7138 30.6703 15.2094 29.6379C15.7462 28.6055 16.2831 27.4492 16.8199 26.169C16.9025 26.6645 16.9851 26.9123 17.0677 26.9123C17.2742 26.9123 17.6252 26.3961 18.1208 25.3637C18.6576 24.3313 19.5042 22.9066 20.6605 21.0896C21.3212 19.9746 22.1471 18.7151 23.1382 17.311C24.1706 15.9069 25.265 14.4616 26.4213 12.9749C27.5776 11.4882 28.6926 10.0842 29.7662 8.7627C30.8812 7.44123 31.8723 6.30559 32.7396 5.35578C33.6068 4.40597 34.2469 3.78653 34.6598 3.49746C36.2291 2.42376 37.468 1.39136 38.3765 0.400252C38.3352 0.689323 38.2732 0.957748 38.1906 1.20553C38.1493 1.41201 38.1287 1.55654 38.1287 1.63913C38.1287 1.80432 38.2113 1.88691 38.3765 1.88691L40.1109 1.01969V1.26747C40.1109 1.59784 40.1935 1.76302 40.3587 1.76302C40.4826 1.76302 40.7304 1.57719 41.102 1.20553C41.4737 0.833861 41.6802 0.565437 41.7215 0.400252L41.5976 1.26747L43.7037 0.0285887L43.2081 1.14358C43.8689 0.689325 44.3438 0.462195 44.6328 0.462195C44.798 0.462195 44.9219 0.565435 45.0045 0.771916C45.0871 0.9371 45.1284 1.10228 45.1284 1.26747C45.1284 1.51524 45.0251 1.80432 44.8187 2.13469C44.6122 2.46506 44.3438 2.85737 44.0134 3.31162C43.7656 3.64199 43.3527 4.13755 42.7745 4.79828C42.2377 5.41772 41.4117 6.34689 40.2967 7.58577C39.1818 8.78335 37.6951 10.4558 35.8368 12.6032C35.3412 13.1401 34.5772 14.0899 33.5448 15.4527C32.5124 16.7741 31.3355 18.3227 30.014 20.0985C28.7338 21.8329 27.4537 23.588 26.1735 25.3637C24.8933 27.1395 23.7577 28.75 22.7666 30.1954C21.7755 31.5994 21.0734 32.6525 20.6605 33.3545L16.8199 39.8586C15.994 41.2627 15.3126 42.419 14.7758 43.3275C14.2389 44.1947 13.826 44.7935 13.5369 45.1239C12.9175 45.8672 12.2361 46.528 11.4927 47.1061L10.9352 46.7964L10.4397 47.1061L9.88219 47.7255Z" fill="#FFD042"/>
</svg>
