<svg width="372" height="84" viewBox="0 0 372 84" fill="none" xmlns="http://www.w3.org/2000/svg">
<path d="M17.2845 1.14538L21.7608 13.7398L26.4647 1.14538H38.3257L43.2572 13.7398L47.4806 1.14538H64.172L51.173 39.7378H38.5786L32.4837 24.4627L26.8188 39.7378H14.2497L0.618412 1.14538H17.2845ZM81.1203 1.14538V39.7378H64.0496V1.14538H81.1203ZM101.66 1.14538V30.0518H116.631V39.7378H84.5637V1.14538H101.66ZM133.681 1.14538V30.0518H148.652V39.7378H116.585V1.14538H133.681ZM175.493 1.14538L181.462 9.89569L187.405 1.14538H204.703L190.01 22.8947V39.7378H172.914V22.8947L158.195 1.14538H175.493ZM219.072 19.3794C219.072 20.5933 219.434 21.5712 220.159 22.313C220.901 23.0549 221.811 23.4258 222.89 23.4258C223.97 23.4258 224.88 23.0549 225.622 22.313C226.364 21.5375 226.735 20.5596 226.735 19.3794C226.735 18.7893 226.633 18.2498 226.431 17.7609C226.246 17.2551 225.984 16.8251 225.647 16.4711C225.31 16.117 224.897 15.8388 224.408 15.6365C223.936 15.4342 223.422 15.333 222.865 15.333C221.786 15.333 220.884 15.7124 220.159 16.4711C219.434 17.2129 219.072 18.1824 219.072 19.3794ZM222.89 0.538421C226.532 0.538421 229.879 1.432 232.931 3.21915C235.982 5.00631 238.368 7.41728 240.088 10.4521C241.824 13.47 242.692 16.7914 242.692 20.4163C242.692 24.0243 241.824 27.3626 240.088 30.4311C238.368 33.4996 235.982 35.9274 232.931 37.7146C229.862 39.4849 226.515 40.37 222.89 40.37C219.266 40.37 215.927 39.4849 212.876 37.7146C209.858 35.9612 207.472 33.5418 205.719 30.4564C203.982 27.3879 203.114 24.0412 203.114 20.4163C203.114 16.8757 203.965 13.5712 205.668 10.5026C207.371 7.46786 209.757 5.04846 212.825 3.24444C215.894 1.44043 219.249 0.538421 222.89 0.538421ZM282.503 1.14538V19.0001C282.503 21.2762 282.317 23.3584 281.946 25.2467C281.576 27.135 281.011 28.8463 280.252 30.3805C279.51 31.8979 278.566 33.2636 277.42 34.4775C276.29 35.6745 274.95 36.7283 273.399 37.6387C270.313 39.4596 266.941 40.37 263.283 40.37C259.86 40.37 256.598 39.527 253.495 37.841C250.41 36.1551 248.066 33.8284 246.465 30.861C244.897 27.9105 244.113 23.7208 244.113 18.2919V1.14538H261.209V19.3288C261.209 20.8799 261.352 21.959 261.639 22.5659C261.942 23.1392 262.473 23.4258 263.232 23.4258C263.687 23.4258 264.05 23.3246 264.319 23.1223C264.606 22.92 264.825 22.5997 264.977 22.1613C265.146 21.7229 265.255 21.1581 265.306 20.4669C265.373 19.7756 265.407 18.9411 265.407 17.9632V1.14538H282.503ZM322.773 1.14538C327.443 1.14538 331.059 2.08954 333.622 3.97785C336.218 5.86616 337.517 8.51317 337.517 11.9189C337.517 13.8578 337.078 15.5016 336.201 16.8504C335.342 18.1824 334.102 19.3035 332.484 20.214C334.473 21.2593 335.982 22.4816 337.011 23.881C338.039 25.2635 338.553 26.9917 338.553 29.0654C338.553 32.3869 337.382 34.9917 335.038 36.88C332.678 38.7852 329.533 39.7378 325.605 39.7378H298.393V1.14538H322.773ZM315.489 16.4205H315.97C316.897 16.4205 317.681 16.353 318.321 16.2182C318.962 16.0833 319.485 15.8641 319.889 15.5606C320.294 15.2572 320.581 14.8694 320.749 14.3973C320.935 13.9084 321.027 13.3267 321.027 12.6523C321.027 11.3372 320.64 10.3846 319.864 9.79453C319.105 9.20443 318.018 8.90938 316.602 8.90938H315.489V16.4205ZM315.489 31.2404H316.197C318.052 31.2404 319.392 30.9369 320.218 30.3299C321.044 29.723 321.457 28.6945 321.457 27.2446C321.457 24.3447 319.864 22.8947 316.678 22.8947H315.489V31.2404ZM371.687 1.14538V10.8314H356.716V15.6112H367.135V25.2973H356.716V30.0518H371.687V39.7378H339.645V1.14538H371.687ZM41.4889 44.1454V67.7409C41.4889 72.6977 41.1855 76.0191 40.5785 77.7051C39.9716 79.408 38.7492 80.7736 36.9115 81.8021C35.0569 82.8474 32.8567 83.37 30.3108 83.37C26.8208 83.37 23.7101 82.5102 20.9788 80.7905C18.2644 79.0539 16.4519 76.7188 15.5415 73.7852C16.5531 73.9875 17.7754 74.0886 19.2085 74.0886C21.2823 74.0886 22.6564 73.802 23.3308 73.2288C24.0389 72.6555 24.393 71.3489 24.393 69.3088V44.1454H41.4889ZM58.6143 62.3794C58.6143 63.5933 58.9768 64.5712 59.7017 65.313C60.4436 66.0549 61.354 66.4258 62.433 66.4258C63.5121 66.4258 64.4225 66.0549 65.1644 65.313C65.9062 64.5375 66.2771 63.5596 66.2771 62.3794C66.2771 61.7893 66.176 61.2498 65.9736 60.7609C65.7882 60.2551 65.5268 59.8251 65.1896 59.4711C64.8524 59.117 64.4394 58.8388 63.9504 58.6365C63.4784 58.4342 62.9641 58.333 62.4078 58.333C61.3287 58.333 60.4267 58.7124 59.7017 59.4711C58.9768 60.2129 58.6143 61.1824 58.6143 62.3794ZM62.433 43.5384C66.0748 43.5384 69.4215 44.432 72.4731 46.2192C75.5248 48.0063 77.9105 50.4173 79.6302 53.4521C81.3668 56.47 82.2351 59.7914 82.2351 63.4163C82.2351 67.0243 81.3668 70.3626 79.6302 73.4311C77.9105 76.4996 75.5248 78.9274 72.4731 80.7146C69.4046 82.4849 66.0579 83.37 62.433 83.37C58.8082 83.37 55.4699 82.4849 52.4182 80.7146C49.4003 78.9612 47.0146 76.5418 45.2612 73.4564C43.5246 70.3879 42.6563 67.0412 42.6563 63.4163C42.6563 59.8757 43.5078 56.5712 45.2106 53.5026C46.9135 50.4679 49.2991 48.0485 52.3677 46.2444C55.4362 44.4404 58.7913 43.5384 62.433 43.5384ZM101.409 44.1454V82.7378H84.3382V44.1454H101.409ZM117.143 44.1454L126.045 57.0432H126.146V44.1454H143.242V83.0413H130.294L122.1 71.0286H121.999V82.7378H104.928V44.1454H117.143ZM163.782 44.1454V82.7378H146.711V44.1454H163.782ZM179.516 44.1454L188.418 57.0432H188.519V44.1454H205.615V83.0413H192.667L184.473 71.0286H184.372V82.7378H167.301V44.1454H179.516ZM229.266 43.5384C232.452 43.5384 235.74 44.0105 239.129 44.9547C240.815 45.4267 242.391 45.9747 243.858 46.5985C245.342 47.2223 246.716 47.922 247.98 48.6976L239.736 60.3056C236.296 58.6534 233.126 57.8272 230.227 57.8272C228.288 57.8272 226.728 58.333 225.548 59.3446C224.368 60.3225 223.778 61.646 223.778 63.3151C223.778 64.9506 224.275 66.1476 225.27 66.9063C226.264 67.6481 227.824 68.0191 229.948 68.0191V61.9748H247.044V82.7884L238.623 83.193C237.257 83.2605 236.102 83.3026 235.158 83.3195C234.214 83.3532 233.472 83.37 232.933 83.37C227.403 83.37 222.893 82.6956 219.402 81.3468C215.963 80.0149 213.164 77.7135 211.006 74.4427C208.882 71.1887 207.82 67.4795 207.82 63.3151C207.82 59.6059 208.696 56.2002 210.45 53.098C212.186 50.0295 214.673 47.6691 217.91 46.0168C221.131 44.3646 224.916 43.5384 229.266 43.5384ZM278.665 44.1454L285.645 52.1876L292.65 44.1454H309.215V82.7378H292.119V63.4163L285.645 70.8768L279.171 63.4163V82.7378H262.075V44.1454H278.665ZM344.574 44.1454V53.8314H329.603V58.6112H340.022V68.2973H329.603V73.0518H344.574V82.7378H312.532V44.1454H344.574ZM368.705 54.5648C368.705 57.549 367.837 60.3478 366.1 62.9611C364.397 65.5744 361.793 68.3141 358.286 71.1803C359.668 71.6692 360.73 72.4364 361.472 73.4817C362.214 74.5101 362.585 75.7156 362.585 77.0981C362.585 78.8684 361.978 80.3605 360.764 81.5745C359.533 82.7715 358.05 83.37 356.313 83.37C354.543 83.37 353.034 82.7715 351.786 81.5745C350.555 80.3943 349.94 78.9359 349.94 77.1993C349.94 76.0528 350.218 74.9654 350.775 73.9369C351.348 72.9084 352.14 71.8125 353.152 70.6492C354.163 69.4859 354.947 68.3563 355.504 67.2604C356.077 66.1645 356.364 64.9843 356.364 63.7198C356.364 61.6629 355.748 60.019 354.517 58.7882C353.27 57.5237 351.66 56.8915 349.687 56.8915C348.692 56.8915 347.596 57.077 346.399 57.4479C345.219 57.8188 343.811 58.4258 342.176 59.2687C343.154 54.9526 345.076 51.2518 347.942 48.1665C350.791 45.0811 354.071 43.5384 357.78 43.5384C360.848 43.5384 363.436 44.6006 365.544 46.725C367.651 48.8324 368.705 51.4457 368.705 54.5648Z" fill="#FFD042"/>
</svg>
