<svg width="120" height="49" viewBox="0 0 120 49" fill="none" xmlns="http://www.w3.org/2000/svg">
<path d="M19.1914 1.52017L23.5771 11.2292L27.7813 1.52017H45.929L26.2388 48.1597H5.91339L13.4144 30.4355L0.590068 1.52017H19.1914ZM61.9498 0.764019C65.7003 0.764019 69.0778 1.58066 72.0823 3.21396C75.1069 4.82708 77.4459 7.18628 79.0994 10.2916C80.773 13.417 81.6098 16.9558 81.6098 20.9079V22.0875H62.4942C62.8169 22.9949 63.2705 23.8217 63.8553 24.5677C64.4401 25.2936 65.1256 25.9187 65.912 26.443C66.6984 26.9471 67.5554 27.3403 68.483 27.6226C69.4307 27.8847 70.4389 28.0158 71.5076 28.0158C72.4956 28.0158 73.4736 27.9251 74.4415 27.7436C75.4093 27.5621 76.3167 27.31 77.1636 26.9874C78.0307 26.6446 78.8372 26.2313 79.5833 25.7473C80.3294 25.2432 80.9948 24.6786 81.5795 24.0535V30.4355C79.422 33.2383 76.8813 35.2849 73.9575 36.5754C71.0337 37.8458 67.6865 38.481 63.9158 38.481C61.8187 38.5011 59.8326 38.3096 57.9573 37.9063C56.1022 37.4828 54.3883 36.8779 52.8155 36.0915C51.2427 35.3051 49.8312 34.3473 48.581 33.2181C47.351 32.0688 46.3025 30.7884 45.4354 29.3769C44.5885 27.9452 43.9433 26.3825 43.4997 24.6887C43.056 22.9949 42.8443 21.2003 42.8645 19.3049C42.8645 15.7359 43.661 12.5499 45.2539 9.74712C46.8671 6.90399 49.1154 4.7061 51.9988 3.15346C54.9226 1.5605 58.2396 0.764019 61.9498 0.764019ZM61.3751 15.7056H70.1768C70.1163 13.9312 69.6726 12.5298 68.8459 11.5014C68.0394 10.4529 66.9606 9.9286 65.6096 9.9286C64.3997 9.9286 63.3915 10.4428 62.585 11.4712C61.7784 12.4592 61.3751 13.7396 61.3751 15.3124V15.7056ZM114.473 13.1649C113.082 11.8946 111.64 10.9166 110.148 10.2311C108.676 9.54548 107.274 9.20269 105.943 9.20269C105.036 9.20269 104.3 9.40433 103.735 9.80761C103.171 10.1907 102.889 10.7049 102.889 11.3502C102.889 12.318 103.302 13.0641 104.129 13.5884C104.552 13.8505 105.157 14.1126 105.943 14.3748C106.75 14.6369 107.748 14.899 108.938 15.1612C112.749 16.0484 115.542 17.4296 117.316 19.3049C119.09 21.16 119.978 23.5091 119.978 26.3523C119.978 30.1431 118.455 33.1072 115.41 35.2446C112.366 37.4022 108.434 38.481 103.614 38.481C102.163 38.481 100.63 38.3902 99.0171 38.2087C97.4039 38.0273 95.6799 37.7651 93.845 37.4223C92.01 37.0795 90.2457 36.6561 88.5519 36.152C86.8581 35.6277 85.2147 35.043 83.6218 34.3977L87.7957 24.1745C88.9653 25.828 90.4776 27.1689 92.3327 28.1973C94.1878 29.2055 96.0126 29.7096 97.8072 29.7096C98.8961 29.7096 99.7631 29.4676 100.408 28.9837C101.074 28.4997 101.406 27.8746 101.406 27.1084C101.406 26.1607 101.003 25.4146 100.197 24.8702C99.4102 24.3258 98.1903 23.8317 96.5369 23.3881C92.1209 22.2388 89.0862 20.6861 87.4328 18.7302C85.7592 16.7541 84.9223 14.5865 84.9223 12.2273C84.9223 8.6381 86.4649 5.82521 89.55 3.78863C92.6553 1.77222 97.041 0.764019 102.707 0.764019C105.812 0.764019 108.726 1.02615 111.448 1.55042C114.191 2.07469 116.691 2.851 118.949 3.87937L114.473 13.1649Z" fill="#FFD042"/>
</svg>
